HIERARCHY
ROOT joint_Root
{
	OFFSET 0.0 0.0 0.0
	CHANNELS 6 Xposition Yposition Zposition Zrotation Xrotation Yrotation 
	JOINT Hips
	{
		OFFSET -17.1583 93.1646 452.98
		CHANNELS 6 Xposition Yposition Zposition Zrotation Xrotation Yrotation 
		JOINT Spine
		{
			OFFSET 15.7357 0.0 0.0
			CHANNELS 6 Xposition Yposition Zposition Zrotation Xrotation Yrotation 
			JOINT Chest
			{
				OFFSET 8.98455 -0.406207 0.0
				CHANNELS 6 Xposition Yposition Zposition Zrotation Xrotation Yrotation 
				JOINT Neck
				{
					OFFSET 16.3773 0.0 0.0
					CHANNELS 6 Xposition Yposition Zposition Zrotation Xrotation Yrotation 
					JOINT Head
					{
						OFFSET 6.45672 0.0 0.0
						CHANNELS 6 Xposition Yposition Zposition Zrotation Xrotation Yrotation 
						End Site
						{
							OFFSET 0.0 0.0 0.0
						}
					}
				}
				JOINT Shoulder_L
				{
					OFFSET 12.9942 -0.242716 4.98039
					CHANNELS 6 Xposition Yposition Zposition Zrotation Xrotation Yrotation 
					JOINT UpperArm_L
					{
						OFFSET 5.34809 0.0 0.0
						CHANNELS 6 Xposition Yposition Zposition Zrotation Xrotation Yrotation 
						JOINT LowerArm_L
						{
							OFFSET 24.3286 1.87007e-05 0.0
							CHANNELS 6 Xposition Yposition Zposition Zrotation Xrotation Yrotation 
							JOINT Hand_L
							{
								OFFSET 22.2916 0.0 0.0
								CHANNELS 6 Xposition Yposition Zposition Zrotation Xrotation Yrotation 
								End Site
								{
									OFFSET 0.0 0.0 0.0
								}
							}
						}
					}
				}
				JOINT Shoulder_R
				{
					OFFSET 12.9945 -0.242716 -4.98039
					CHANNELS 6 Xposition Yposition Zposition Zrotation Xrotation Yrotation 
					JOINT UpperArm_R
					{
						OFFSET -5.34813 0.0 0.0
						CHANNELS 6 Xposition Yposition Zposition Zrotation Xrotation Yrotation 
						JOINT LowerArm_R
						{
							OFFSET -24.3289 0.000322201 0.0
							CHANNELS 6 Xposition Yposition Zposition Zrotation Xrotation Yrotation 
							JOINT Hand_R
							{
								OFFSET -22.2915 -0.000108084 0.0
								CHANNELS 6 Xposition Yposition Zposition Zrotation Xrotation Yrotation 
								End Site
								{
									OFFSET 0.0 0.0 0.0
								}
							}
						}
					}
				}
			}
		}
		JOINT UpperLeg_L
		{
			OFFSET -2.19248 -6.46944 0.0
			CHANNELS 6 Xposition Yposition Zposition Zrotation Xrotation Yrotation 
			JOINT LowerLeg_L
			{
				OFFSET 39.0811 0.0 -1.23785e-05
				CHANNELS 6 Xposition Yposition Zposition Zrotation Xrotation Yrotation 
				JOINT Foot_L
				{
					OFFSET 40.9854 0.0 -1.26872e-05
					CHANNELS 6 Xposition Yposition Zposition Zrotation Xrotation Yrotation 
					JOINT Toes_L
					{
						OFFSET 11.7543 0.0 0.0
						CHANNELS 6 Xposition Yposition Zposition Zrotation Xrotation Yrotation 
						End Site
						{
							OFFSET 0.0 0.0 0.0
						}
					}
				}
			}
		}
		JOINT UpperLeg_R
		{
			OFFSET -2.19251 6.46944 0.0
			CHANNELS 6 Xposition Yposition Zposition Zrotation Xrotation Yrotation 
			JOINT LowerLeg_R
			{
				OFFSET -39.0811 -0.00228153 -0.0401928
				CHANNELS 6 Xposition Yposition Zposition Zrotation Xrotation Yrotation 
				JOINT Foot_R
				{
					OFFSET -40.9854 0.0 0.0
					CHANNELS 6 Xposition Yposition Zposition Zrotation Xrotation Yrotation 
					JOINT Toes_R
					{
						OFFSET -11.7543 0.0 0.0
						CHANNELS 6 Xposition Yposition Zposition Zrotation Xrotation Yrotation 
						End Site
						{
							OFFSET 0.0 0.0 0.0
						}
					}
				}
			}
		}
	}
}
MOTION
Frames:	9
Frame Time:	0.0333333
0.000000 0.000000 0.000000 0.000000 0.000000 -0.000000 -2.314980 93.509400 3.195010 87.901500 1.258280 -7.356010 15.735700 0.000005 -0.000001 -81.295500 87.564700 82.901600 8.984550 -0.406207 -0.000000 -12.565400 -1.016220 3.115860 16.377300 -0.000001 -0.000001 -8.321480 0.740987 2.307620 6.456720 -0.000001 -0.000000 1.848610 2.682880 0.156073 12.994200 -0.242716 4.980390 -87.754000 -4.281450 -62.285100 5.348090 -0.000007 -0.000001 -80.274800 -60.421600 -120.607000 24.328600 0.000019 0.000005 0.000044 -16.909600 0.000001 22.291600 -0.000001 0.000005 55.095000 4.163830 21.850600 12.994500 -0.242716 -4.980390 94.478200 -7.700320 -59.693300 -5.348130 -0.000001 -0.000004 -82.981700 -58.782300 -133.068000 -24.328900 0.000322 -0.000009 -0.001090 -30.445800 -0.000175 -22.291500 -0.000108 -0.000004 53.578900 5.398800 -2.898840 -2.192480 -6.469440 -0.000000 -171.387000 -5.213370 0.362048 39.081100 -0.000007 -0.000012 -0.000001 -0.003893 0.000003 40.985400 -0.000006 -0.000013 -10.723600 13.307500 -60.774800 11.754300 -0.000000 0.000003 -0.000736 0.179203 -9.307740 -2.192510 6.469440 -0.000001 179.409000 10.243400 179.515000 -39.081100 -0.002282 -0.040193 0.005612 -0.040726 3.178950 -40.985400 0.000008 0.000006 -8.858160 6.076150 -63.737800 -11.754300 -0.000006 -0.000006 -0.010421 0.274422 -5.423500
0.000000 0.000000 0.000000 0.000000 0.000000 -0.000000 -2.278600 93.503000 3.178110 87.911500 1.346270 -7.365390 15.735700 0.000005 -0.000001 -80.994200 87.587100 82.607900 8.984550 -0.406207 -0.000000 -12.516800 -1.035120 3.129570 16.377300 -0.000001 -0.000001 -8.347250 0.747831 2.312810 6.456720 -0.000001 -0.000000 1.810400 2.753340 0.046336 12.994200 -0.242716 4.980390 -87.775800 -4.244190 -62.309200 5.348090 -0.000007 -0.000001 -79.858000 -60.465700 -120.227000 24.328600 0.000019 0.000005 0.000044 -16.863700 0.000001 22.291600 -0.000001 0.000005 54.889900 4.162990 21.863200 12.994500 -0.242716 -4.980390 94.477600 -7.695520 -59.681300 -5.348130 -0.000001 -0.000004 -82.562000 -59.006900 -132.694000 -24.328900 0.000322 -0.000009 -0.001090 -30.545800 -0.000176 -22.291500 -0.000108 -0.000004 53.480500 5.400350 -2.948920 -2.192480 -6.469440 -0.000000 -171.417000 -5.240090 0.328568 39.081100 -0.000007 -0.000012 -0.000001 -0.001460 0.000000 40.985400 -0.000006 -0.000013 -10.722100 13.396900 -60.799300 11.754300 -0.000000 0.000003 -0.000733 0.179171 -9.309030 -2.192510 6.469440 -0.000001 179.391000 10.269700 179.493000 -39.081100 -0.002282 -0.040193 0.005604 -0.040193 3.209890 -40.985400 0.000008 0.000006 -8.820570 6.018600 -63.816500 -11.754300 -0.000006 -0.000006 -0.010513 0.275101 -5.395680
0.000000 0.000000 0.000000 0.000000 0.000000 -0.000000 -2.239280 93.508600 3.155870 87.942400 1.471730 -7.439760 15.735700 0.000005 -0.000001 -80.569500 87.588400 82.174700 8.984550 -0.406207 -0.000000 -12.508300 -1.068160 3.108960 16.377300 -0.000001 -0.000001 -8.316040 0.766920 2.273500 6.456720 -0.000001 -0.000000 1.622300 2.790640 0.097375 12.994200 -0.242716 4.980390 -87.781700 -4.242380 -62.361400 5.348090 -0.000007 -0.000001 -79.384100 -60.570900 -119.823000 24.328600 0.000019 0.000005 0.000044 -16.715800 0.000001 22.291600 -0.000001 0.000005 54.817600 4.167330 21.798800 12.994500 -0.242716 -4.980390 94.446900 -7.642160 -59.681100 -5.348130 -0.000001 -0.000004 -82.501700 -59.117300 -132.613000 -24.328900 0.000322 -0.000009 -0.001091 -30.555800 -0.000176 -22.291500 -0.000108 -0.000004 53.365200 5.400380 -2.950050 -2.192480 -6.469440 -0.000000 -171.469000 -5.183220 0.214659 39.081100 -0.000007 -0.000012 -0.000001 -0.000036 0.000006 40.985400 -0.000006 -0.000013 -10.645600 13.468700 -60.794900 11.754300 -0.000000 0.000003 -0.000751 0.179431 -9.298470 -2.192510 6.469440 -0.000001 179.366000 10.293900 179.438000 -39.081100 -0.002282 -0.040193 0.005689 -0.042293 3.164900 -40.985400 0.000008 0.000006 -8.864090 5.897540 -63.810800 -11.754300 -0.000006 -0.000006 -0.010405 0.274305 -5.428250
0.000000 0.000000 0.000000 0.000000 0.000000 -0.000000 -2.196780 93.503600 3.172080 87.980900 1.589280 -7.450410 15.735700 0.000005 -0.000001 -80.329200 87.605500 81.922500 8.984550 -0.406207 -0.000000 -12.471200 -1.079680 3.084050 16.377300 -0.000001 -0.000001 -8.342160 0.749801 2.276430 6.456720 -0.000001 -0.000000 1.520990 2.766890 0.096842 12.994200 -0.242716 4.980390 -87.780600 -4.249200 -62.387900 5.348090 -0.000007 -0.000001 -79.183800 -60.543700 -119.653000 24.328600 0.000019 0.000005 0.000044 -16.587500 0.000001 22.291600 -0.000001 0.000005 54.733600 4.179810 21.613200 12.994500 -0.242716 -4.980390 94.451800 -7.625320 -59.598900 -5.348130 -0.000001 -0.000004 -82.584400 -59.077600 -132.657000 -24.328900 0.000322 -0.000009 -0.001089 -30.259700 -0.000174 -22.291500 -0.000108 -0.000004 53.235600 5.401200 -2.976730 -2.192480 -6.469440 -0.000000 -171.529000 -5.223210 0.191666 39.081100 -0.000007 -0.000012 -0.000001 0.000706 0.000008 40.985400 -0.000006 -0.000013 -10.637700 13.606100 -60.803000 11.754300 -0.000000 0.000003 -0.000600 0.177177 -9.390020 -2.192510 6.469440 -0.000001 179.317000 10.375700 179.463000 -39.081100 -0.002282 -0.040193 0.005563 -0.040263 3.146190 -40.985400 0.000008 0.000006 -8.738560 5.870730 -63.896800 -11.754300 -0.000006 -0.000006 -0.010938 0.278188 -5.269380
0.000000 0.000000 0.000000 0.000000 0.000000 -0.000000 -2.157710 93.502300 3.194150 87.964500 1.680330 -7.474740 15.735700 0.000005 -0.000001 -80.134600 87.609600 81.727000 8.984550 -0.406207 -0.000000 -12.460100 -1.093880 3.080740 16.377300 -0.000001 -0.000001 -8.423630 0.678612 2.326880 6.456720 -0.000001 -0.000000 1.618240 2.731440 0.119334 12.994200 -0.242716 4.980390 -87.770900 -4.267080 -62.384100 5.348090 -0.000007 -0.000001 -79.062900 -60.459900 -119.636000 24.328600 0.000019 0.000005 0.000044 -16.459300 0.000001 22.291600 -0.000001 0.000005 54.599000 4.175680 21.674700 12.994500 -0.242716 -4.980390 94.440500 -7.623930 -59.658000 -5.348130 -0.000001 -0.000004 -82.500200 -59.185100 -132.555000 -24.328900 0.000322 -0.000009 -0.001090 -30.247600 -0.000174 -22.291500 -0.000108 -0.000004 53.116000 5.398030 -2.873820 -2.192480 -6.469440 -0.000000 -171.519000 -5.210110 0.154764 39.081100 -0.000007 -0.000012 -0.000001 0.000808 0.000006 40.985400 -0.000006 -0.000013 -10.750000 13.655500 -60.783500 11.754300 -0.000000 0.000003 -0.000706 0.178760 -9.325730 -2.192510 6.469440 -0.000001 179.305000 10.541900 179.475000 -39.081100 -0.002282 -0.040193 0.005647 -0.042320 3.106890 -40.985400 0.000008 0.000006 -8.933140 5.973850 -63.754800 -11.754300 -0.000006 -0.000006 -0.010285 0.273419 -5.464530
0.000000 0.000000 0.000000 0.000000 0.000000 -0.000000 -2.105140 93.514300 3.241600 88.000800 1.723410 -7.495770 15.735700 0.000005 -0.000001 -80.246200 87.596900 81.827700 8.984550 -0.406207 -0.000000 -12.487000 -1.087480 3.059440 16.377300 -0.000001 -0.000001 -8.385540 0.641099 2.333820 6.456720 -0.000001 -0.000000 1.653180 2.653520 0.134997 12.994200 -0.242716 4.980390 -87.782600 -4.240610 -62.361200 5.348090 -0.000007 -0.000001 -79.024700 -60.261400 -119.701000 24.328600 0.000019 0.000005 0.000044 -16.297700 0.000001 22.291600 -0.000001 0.000005 54.635800 4.174680 21.689600 12.994500 -0.242716 -4.980390 94.424600 -7.604300 -59.683700 -5.348130 -0.000001 -0.000004 -82.448900 -59.053800 -132.549000 -24.328900 0.000322 -0.000009 -0.001090 -30.237700 -0.000174 -22.291500 -0.000108 -0.000004 53.202700 5.399410 -2.918380 -2.192480 -6.469440 -0.000000 -171.591000 -5.235460 0.162250 39.081100 -0.000007 -0.000012 -0.000001 0.003068 0.000011 40.985400 -0.000006 -0.000013 -10.631700 13.735400 -60.794700 11.754300 -0.000000 0.000003 -0.000679 0.178368 -9.341630 -2.192510 6.469440 -0.000001 179.236000 10.621500 179.586000 -39.081100 -0.002282 -0.040193 0.005475 -0.041800 2.908770 -40.985400 0.000008 0.000006 -8.940440 5.971810 -63.631600 -11.754300 -0.000006 -0.000006 -0.010385 0.274160 -5.434220
0.000000 0.000000 0.000000 0.000000 0.000000 -0.000000 -2.053250 93.512700 3.305610 88.001100 1.724940 -7.507410 15.735700 0.000005 -0.000001 -80.602800 87.599300 82.182700 8.984550 -0.406207 -0.000000 -12.487500 -1.057110 3.059420 16.377300 -0.000001 -0.000001 -8.352680 0.585304 2.342790 6.456720 -0.000001 -0.000000 1.691070 2.559480 0.155589 12.994200 -0.242716 4.980390 -87.772600 -4.257280 -62.347500 5.348090 -0.000007 -0.000001 -78.805600 -60.176500 -119.570000 24.328600 0.000019 0.000005 0.000044 -16.271200 0.000001 22.291600 -0.000001 0.000005 54.642500 4.171570 21.735900 12.994500 -0.242716 -4.980390 94.431600 -7.602960 -59.639700 -5.348130 -0.000001 -0.000004 -82.377500 -58.885200 -132.457000 -24.328900 0.000322 -0.000009 -0.001089 -30.266200 -0.000174 -22.291500 -0.000108 -0.000004 53.082100 5.400130 -2.941720 -2.192480 -6.469440 -0.000000 -171.623000 -5.297900 0.182511 39.081100 -0.000007 -0.000012 -0.000001 0.003789 0.000003 40.985400 -0.000006 -0.000013 -10.596600 13.785800 -60.747200 11.754300 -0.000000 0.000003 -0.000915 0.181825 -9.201180 -2.192510 6.469440 -0.000001 179.199000 10.673900 179.657000 -39.081100 -0.002282 -0.040193 0.005430 -0.042305 2.813600 -40.985400 0.000008 0.000006 -9.035120 5.999200 -63.531800 -11.754300 -0.000006 -0.000006 -0.010374 0.274080 -5.437480
0.000000 0.000000 0.000000 0.000000 0.000000 -0.000000 -1.998990 93.535200 3.347370 88.043000 1.695460 -7.531320 15.735700 0.000005 -0.000001 -80.815300 87.572600 82.388300 8.984550 -0.406207 -0.000000 -12.543300 -1.047600 3.046060 16.377300 -0.000001 -0.000001 -8.326430 0.579557 2.311910 6.456720 -0.000001 -0.000000 1.865940 2.461960 0.230993 12.994200 -0.242716 4.980390 -87.776000 -4.250840 -62.348700 5.348090 -0.000007 -0.000001 -78.646900 -60.093100 -119.478000 24.328600 0.000019 0.000005 0.000045 -16.076800 0.000001 22.291600 -0.000001 0.000005 54.648100 4.160910 21.893900 12.994500 -0.242716 -4.980390 94.441900 -7.642480 -59.710500 -5.348130 -0.000001 -0.000004 -82.055000 -58.786100 -132.179000 -24.328900 0.000322 -0.000009 -0.001089 -30.461600 -0.000176 -22.291500 -0.000108 -0.000004 52.814500 5.400570 -2.956080 -2.192480 -6.469440 -0.000000 -171.705000 -5.033980 0.191362 39.081100 -0.000007 -0.000012 -0.000001 0.001200 0.000007 40.985400 -0.000006 -0.000013 -10.566900 13.544600 -60.742700 11.754300 -0.000000 0.000003 -0.000776 0.179806 -9.283210 -2.192510 6.469440 -0.000001 179.109000 10.659600 179.715000 -39.081100 -0.002282 -0.040193 0.005388 -0.043273 2.694920 -40.985400 0.000008 0.000006 -9.083410 5.984390 -63.421300 -11.754300 -0.000006 -0.000006 -0.010292 0.273474 -5.462280
0.000000 0.000000 0.000000 0.000000 0.000000 -0.000000 -1.933150 93.545500 3.379800 87.996200 1.583360 -7.621930 15.735700 0.000005 -0.000001 -81.496400 87.550600 83.091000 8.984550 -0.406207 -0.000000 -12.596100 -1.001980 3.094370 16.377300 -0.000001 -0.000001 -8.269630 0.564035 2.301210 6.456720 -0.000001 -0.000000 1.886960 2.444330 0.261641 12.994200 -0.242716 4.980390 -87.772500 -4.254890 -62.333400 5.348090 -0.000007 -0.000001 -78.688100 -60.063500 -119.539000 24.328600 0.000019 0.000005 0.000044 -15.983600 0.000001 22.291600 -0.000001 0.000005 54.569800 4.161680 21.882600 12.994500 -0.242716 -4.980390 94.460300 -7.670370 -59.697200 -5.348130 -0.000001 -0.000004 -82.035700 -58.517700 -132.144000 -24.328900 0.000322 -0.000009 -0.001090 -30.403200 -0.000175 -22.291500 -0.000108 -0.000004 52.780700 5.401720 -2.993600 -2.192480 -6.469440 -0.000000 -171.728000 -5.165050 0.134255 39.081100 -0.000007 -0.000012 -0.000001 0.001843 0.000002 40.985400 -0.000006 -0.000013 -10.465500 13.512400 -60.731700 11.754300 -0.000000 0.000003 -0.000748 0.179386 -9.300300 -2.192510 6.469440 -0.000001 179.131000 10.618600 179.641000 -39.081100 -0.002282 -0.040193 0.005406 -0.044613 2.637820 -40.985400 0.000008 0.000006 -9.071740 5.985310 -63.272300 -11.754300 -0.000006 -0.000006 -0.010294 0.273491 -5.461560
